<svg width="138" height="120" viewBox="0 0 138 120" fill="none" xmlns="http://www.w3.org/2000/svg">
<g opacity="0.5">
<g filter="url(#filter0_dd_1755_13601)">
<circle cx="77.5038" cy="61.639" r="37.9928" fill="#FFFEFE" fill-opacity="0.2" stroke="white" stroke-width="1.55073"/>
<path d="M113.28 78.3097C117.176 70.1305 118.084 60.8453 115.847 52.0662C113.61 43.2872 108.369 35.5688 101.034 30.2513L99.3224 32.6123C106.106 37.5298 110.952 44.6676 113.021 52.7863C115.09 60.905 114.25 69.4918 110.647 77.0557L113.28 78.3097Z" stroke="white" stroke-width="2.32609"/>
<path d="M45.7998 84.6251C51.1525 92.404 59.1601 97.9619 68.3197 100.256C77.4794 102.55 87.1613 101.422 95.5483 97.0835L94.2086 94.4933C86.4525 98.5051 77.4988 99.5482 69.0281 97.4269C60.5575 95.3056 53.1522 90.1658 48.2022 82.9721L45.7998 84.6251Z" stroke="white" stroke-width="2.32609"/>
<path d="M73.899 22.4492C64.7025 23.1781 56.0674 27.1626 49.545 33.6868C43.0226 40.211 39.0406 48.8473 38.3143 58.0439L41.2214 58.2735C41.8931 49.7686 45.5756 41.782 51.6073 35.7485C57.6391 29.7151 65.6247 26.0303 74.1294 25.3562L73.899 22.4492Z" stroke="white" stroke-width="2.32609"/>
<path fill-rule="evenodd" clip-rule="evenodd" d="M130.716 44.7558C132.434 50.1716 133.33 55.8617 133.33 61.6383H124.234C124.234 50.0021 119.893 38.7846 112.059 30.18C109.563 27.4375 106.768 25.0234 103.745 22.9716L107.207 21.9199C114.463 27.3033 120.222 34.4552 123.934 42.6971L124.042 42.6484L130.716 44.7558ZM129.449 41.1879C126.986 34.9299 123.391 29.1153 118.785 24.0567C109.427 13.7773 96.5709 7.35898 82.7308 6.05737L81.8792 15.1134C88.5353 15.7393 94.9197 17.7792 100.633 21.0335L108.13 18.9946L108.542 19.3376L108.545 19.3337C115.894 24.6916 121.815 31.7583 125.803 39.9118L129.449 41.1879Z" fill="#01F8FF"/>
<path fill-rule="evenodd" clip-rule="evenodd" d="M31.4906 30.3051C34.5691 25.5306 38.3832 21.2152 42.8343 17.5347L48.6306 24.5446C39.663 31.9596 33.7844 42.4535 32.1448 53.9736C31.6224 57.6443 31.5423 61.3351 31.8874 64.9717L28.8707 62.9737C28.3961 53.9516 30.2379 44.9553 34.2241 36.8422L34.1188 36.7905L31.4906 30.3051ZM29.548 33.5548C26.2943 39.442 24.1036 45.9185 23.1396 52.6919C21.1809 66.4543 24.4271 80.4524 32.2434 91.9479L39.7653 86.8334C36.0056 81.304 33.5091 75.0828 32.3766 68.6049L26.028 64.1264L26.03 63.5899L26.0252 63.5902C25.4716 54.5122 27.1448 45.4456 30.8871 37.1759L29.548 33.5548Z" fill="#01F8FF"/>
<rect x="121.384" y="79.9607" width="9.30436" height="1.55073" transform="rotate(25.0687 121.384 79.9607)" fill="#01F8FF"/>
<rect x="51.0686" y="99.3962" width="9.30436" height="1.55073" transform="rotate(130.166 51.0686 99.3962)" fill="#01F8FF"/>
<rect x="66.1582" y="15.3337" width="9.30436" height="1.55073" transform="rotate(-101.59 66.1582 15.3337)" fill="#01F8FF"/>
<rect x="124.331" y="65.2634" width="9.30436" height="1.55073" transform="rotate(1.08298 124.331 65.2634)" fill="#01F8FF"/>
<rect x="64.491" y="106.068" width="9.30436" height="1.55073" transform="rotate(106.181 64.491 106.068)" fill="#01F8FF"/>
<rect x="52.6077" y="21.7458" width="9.30436" height="1.55073" transform="rotate(-125.576 52.6077 21.7458)" fill="#01F8FF"/>
<rect x="119.181" y="84.408" width="9.30436" height="1.55073" transform="rotate(33.9522 119.181 84.408)" fill="#01F8FF"/>
<rect x="47.3501" y="96.1091" width="9.30436" height="1.55073" transform="rotate(139.05 47.3501 96.1091)" fill="#01F8FF"/>
<rect x="71.0398" y="14.449" width="9.30436" height="1.55073" transform="rotate(-92.7067 71.0398 14.449)" fill="#01F8FF"/>
<rect x="124.157" y="70.0466" width="9.30436" height="1.55073" transform="rotate(9.96643 124.157 70.0466)" fill="#01F8FF"/>
<rect x="59.9189" y="104.656" width="9.30436" height="1.55073" transform="rotate(115.064 59.9189 104.656)" fill="#01F8FF"/>
<rect x="56.5486" y="19.031" width="9.30436" height="1.55073" transform="rotate(-116.692 56.5486 19.031)" fill="#01F8FF"/>
<rect x="116.406" y="88.4177" width="9.30436" height="1.55073" transform="rotate(40.7223 116.406 88.4177)" fill="#01F8FF"/>
<rect x="44.2024" y="92.3865" width="9.30436" height="1.55073" transform="rotate(145.82 44.2024 92.3865)" fill="#01F8FF"/>
<rect x="75.9128" y="14.281" width="9.30436" height="1.55073" transform="rotate(-85.9367 75.9128 14.281)" fill="#01F8FF"/>
<rect x="123.22" y="75.0212" width="9.30436" height="1.55073" transform="rotate(16.7365 123.22 75.0212)" fill="#01F8FF"/>
<rect x="55.3582" y="102.455" width="9.30436" height="1.55073" transform="rotate(121.834 55.3582 102.455)" fill="#01F8FF"/>
<rect x="61.1001" y="16.8103" width="9.30436" height="1.55073" transform="rotate(-109.922 61.1001 16.8103)" fill="#01F8FF"/>
</g>
<path d="M66.6559 116.402C76.1069 118.275 85.8816 117.669 95.0291 114.644C104.177 111.62 112.386 106.279 118.858 99.1419L112.12 93.0316C106.702 99.0059 99.8308 103.476 92.1736 106.008C84.5165 108.54 76.3344 109.047 68.4233 107.48L66.6559 116.402Z" fill="url(#paint0_linear_1755_13601)"/>
</g>
<defs>
<filter id="filter0_dd_1755_13601" x="18.3533" y="0.770787" width="119.51" height="118.462" filterUnits="userSpaceOnUse" color-interpolation-filters="sRGB">
<feFlood flood-opacity="0" result="BackgroundImageFix"/>
<feColorMatrix in="SourceAlpha" type="matrix" values="0 0 0 0 0 0 0 0 0 0 0 0 0 0 0 0 0 0 127 0" result="hardAlpha"/>
<feOffset dx="1.40974" dy="1.40974"/>
<feGaussianBlur stdDeviation="1.40974"/>
<feComposite in2="hardAlpha" operator="out"/>
<feColorMatrix type="matrix" values="0 0 0 0 1 0 0 0 0 1 0 0 0 0 1 0 0 0 0.25 0"/>
<feBlend mode="normal" in2="BackgroundImageFix" result="effect1_dropShadow_1755_13601"/>
<feColorMatrix in="SourceAlpha" type="matrix" values="0 0 0 0 0 0 0 0 0 0 0 0 0 0 0 0 0 0 127 0" result="hardAlpha"/>
<feOffset dx="-1.40974" dy="-1.40974"/>
<feGaussianBlur stdDeviation="1.40974"/>
<feComposite in2="hardAlpha" operator="out"/>
<feColorMatrix type="matrix" values="0 0 0 0 1 0 0 0 0 1 0 0 0 0 1 0 0 0 0.25 0"/>
<feBlend mode="normal" in2="effect1_dropShadow_1755_13601" result="effect2_dropShadow_1755_13601"/>
<feBlend mode="normal" in="SourceGraphic" in2="effect2_dropShadow_1755_13601" result="shape"/>
</filter>
<linearGradient id="paint0_linear_1755_13601" x1="116.659" y1="96.9194" x2="74.402" y2="112.039" gradientUnits="userSpaceOnUse">
<stop stop-color="#01F8FF" stop-opacity="0"/>
<stop offset="1" stop-color="#01F8FF"/>
</linearGradient>
</defs>
</svg>
