<svg width="1302" height="86" viewBox="0 0 1302 86" fill="none" xmlns="http://www.w3.org/2000/svg">
<g filter="url(#filter0_b_1755_13951)">
<g style="mix-blend-mode:color-dodge" opacity="0.2" filter="url(#filter1_f_1755_13951)">
<path d="M6 17.5L19.5 6H192.5L204 17.5H1269.5L1296 44.5V79.5H553.5L544 72L367.5 74.5L359.5 79.5H35.5L6 58V17.5Z" fill="white"/>
</g>
<g filter="url(#filter2_dd_1755_13951)">
<g style="mix-blend-mode:color-dodge">
<path d="M66.9738 10.8796C67.3262 10.5775 67.1126 10 66.6484 10H62.185C62.0656 10 61.9502 10.0427 61.8596 10.1204L56.0262 15.1204C55.6738 15.4225 55.8874 16 56.3516 16H60.815C60.9344 16 61.0498 15.9573 61.1404 15.8796L66.9738 10.8796Z" fill="#01F8FF"/>
</g>
<g style="mix-blend-mode:color-dodge">
<path d="M58.9738 10.8796C59.3262 10.5775 59.1126 10 58.6484 10H54.185C54.0656 10 53.9502 10.0427 53.8596 10.1204L48.0262 15.1204C47.6738 15.4225 47.8874 16 48.3516 16H52.815C52.9344 16 53.0498 15.9573 53.1404 15.8796L58.9738 10.8796Z" fill="#01F8FF"/>
</g>
<g style="mix-blend-mode:color-dodge">
<path d="M50.9738 10.8796C51.3262 10.5775 51.1126 10 50.6484 10H46.185C46.0656 10 45.9502 10.0427 45.8596 10.1204L40.0262 15.1204C39.6738 15.4225 39.8874 16 40.3516 16H44.815C44.9344 16 45.0498 15.9573 45.1404 15.8796L50.9738 10.8796Z" fill="#01F8FF"/>
</g>
<g style="mix-blend-mode:color-dodge">
<path d="M26.9738 10.8796C27.3262 10.5775 27.1126 10 26.6484 10H22.185C22.0656 10 21.9502 10.0427 21.8596 10.1204L16.0262 15.1204C15.6738 15.4225 15.8874 16 16.3516 16H20.815C20.9344 16 21.0498 15.9573 21.1404 15.8796L26.9738 10.8796Z" fill="#01F8FF"/>
</g>
<g style="mix-blend-mode:color-dodge">
<path d="M42.9738 10.8796C43.3262 10.5775 43.1126 10 42.6484 10H38.185C38.0656 10 37.9502 10.0427 37.8596 10.1204L32.0262 15.1204C31.6738 15.4225 31.8874 16 32.3516 16H36.815C36.9344 16 37.0498 15.9573 37.1404 15.8796L42.9738 10.8796Z" fill="#01F8FF"/>
</g>
<g style="mix-blend-mode:color-dodge">
<path d="M34.9738 10.8796C35.3262 10.5775 35.1126 10 34.6484 10H30.185C30.0656 10 29.9502 10.0427 29.8596 10.1204L24.0262 15.1204C23.6738 15.4225 23.8874 16 24.3516 16H28.815C28.9344 16 29.0498 15.9573 29.1404 15.8796L34.9738 10.8796Z" fill="#01F8FF"/>
</g>
</g>
<g style="mix-blend-mode:color-dodge" filter="url(#filter3_dd_1755_13951)">
<path d="M549.026 70.8796C548.674 70.5775 548.887 70 549.352 70H553.815C553.934 70 554.05 70.0427 554.14 70.1204L559.974 75.1204C560.326 75.4225 560.113 76 559.648 76H555.185C555.066 76 554.95 75.9573 554.86 75.8796L549.026 70.8796Z" fill="#01F8FF"/>
</g>
<g style="mix-blend-mode:color-dodge" filter="url(#filter4_dd_1755_13951)">
<path d="M557.026 70.8796C556.674 70.5775 556.887 70 557.352 70H561.815C561.934 70 562.05 70.0427 562.14 70.1204L567.974 75.1204C568.326 75.4225 568.113 76 567.648 76H563.185C563.066 76 562.95 75.9573 562.86 75.8796L557.026 70.8796Z" fill="#01F8FF"/>
</g>
<g style="mix-blend-mode:color-dodge" filter="url(#filter5_dd_1755_13951)">
<path d="M565.026 70.8796C564.674 70.5775 564.887 70 565.352 70H569.815C569.934 70 570.05 70.0427 570.14 70.1204L575.974 75.1204C576.326 75.4225 576.113 76 575.648 76H571.185C571.066 76 570.95 75.9573 570.86 75.8796L565.026 70.8796Z" fill="#01F8FF"/>
</g>
<g style="mix-blend-mode:color-dodge" filter="url(#filter6_dd_1755_13951)">
<path d="M589.026 70.8796C588.674 70.5775 588.887 70 589.352 70H593.815C593.934 70 594.05 70.0427 594.14 70.1204L599.974 75.1204C600.326 75.4225 600.113 76 599.648 76H595.185C595.066 76 594.95 75.9573 594.86 75.8796L589.026 70.8796Z" fill="#01F8FF"/>
</g>
<g style="mix-blend-mode:color-dodge" filter="url(#filter7_dd_1755_13951)">
<path d="M573.026 70.8796C572.674 70.5775 572.887 70 573.352 70H577.815C577.934 70 578.05 70.0427 578.14 70.1204L583.974 75.1204C584.326 75.4225 584.113 76 583.648 76H579.185C579.066 76 578.95 75.9573 578.86 75.8796L573.026 70.8796Z" fill="#01F8FF"/>
</g>
<g style="mix-blend-mode:color-dodge" filter="url(#filter8_dd_1755_13951)">
<path d="M597.026 70.8796C596.674 70.5775 596.887 70 597.352 70H601.815C601.934 70 602.05 70.0427 602.14 70.1204L607.974 75.1204C608.326 75.4225 608.113 76 607.648 76H603.185C603.066 76 602.95 75.9573 602.86 75.8796L597.026 70.8796Z" fill="#01F8FF"/>
</g>
<g style="mix-blend-mode:color-dodge" filter="url(#filter9_dd_1755_13951)">
<path d="M581.026 70.8796C580.674 70.5775 580.887 70 581.352 70H585.815C585.934 70 586.05 70.0427 586.14 70.1204L591.974 75.1204C592.326 75.4225 592.113 76 591.648 76H587.185C587.066 76 586.95 75.9573 586.86 75.8796L581.026 70.8796Z" fill="#01F8FF"/>
</g>
<g style="mix-blend-mode:color-dodge" filter="url(#filter10_dd_1755_13951)">
<path d="M605.026 70.8796C604.674 70.5775 604.887 70 605.352 70H609.815C609.934 70 610.05 70.0427 610.14 70.1204L615.974 75.1204C616.326 75.4225 616.113 76 615.648 76H611.185C611.066 76 610.95 75.9573 610.86 75.8796L605.026 70.8796Z" fill="#01F8FF"/>
</g>
<g style="mix-blend-mode:color-dodge" filter="url(#filter11_bdd_1755_13951)">
<path fill-rule="evenodd" clip-rule="evenodd" d="M123 6H19.5L6 17.5V58L35.5 79.5H47.5263L47.3158 77.5H36.1515L8 56.9828V18.4236L20.2364 8H122L123 6ZM255.867 79.5H58.75L58.8611 77.5H256.133L255.867 79.5ZM130.666 8H191.672L202.586 18.9142C202.961 19.2893 203.47 19.5 204 19.5H598.428L599.712 18H600.25H602.5H639.356L639.784 17.5H204L192.5 6H131.666L130.666 8ZM642.572 17.5L641.288 19H640.75H638.5H601.644L601.216 19.5H905.35L906.75 17.5H642.572ZM916.75 17.5L915.35 19.5H1268.66L1294 45.3175V77.5H1111.5L1110.43 79.5H1294H1296V77.5V44.5L1269.5 17.5H916.75ZM1104 79.5L1105.07 77.5H1096.86L1095.72 79.5H1104ZM1081.78 79.5L1082.92 77.5H937.791L937.163 79H936.9H935.8H917.781L917.572 79.5H1081.78ZM916.209 79.5L916.837 78H917.1H918.2H936.219L936.428 77.5H554.194L545.239 70.4302C544.879 70.1455 544.431 69.9937 543.972 70.0002L367.472 72.5002C367.107 72.5054 366.75 72.6104 366.44 72.804L358.926 77.5H260.589L260.308 79.5H359.5L367.5 74.5L544 72L553.5 79.5H916.209Z" fill="#01F8FF"/>
</g>
</g>
<defs>
<filter id="filter0_b_1755_13951" x="-4" y="-4" width="1310" height="93.5" filterUnits="userSpaceOnUse" color-interpolation-filters="sRGB">
<feFlood flood-opacity="0" result="BackgroundImageFix"/>
<feGaussianBlur in="BackgroundImageFix" stdDeviation="5"/>
<feComposite in2="SourceAlpha" operator="in" result="effect1_backgroundBlur_1755_13951"/>
<feBlend mode="normal" in="SourceGraphic" in2="effect1_backgroundBlur_1755_13951" result="shape"/>
</filter>
<filter id="filter1_f_1755_13951" x="2" y="2" width="1298" height="81.5" filterUnits="userSpaceOnUse" color-interpolation-filters="sRGB">
<feFlood flood-opacity="0" result="BackgroundImageFix"/>
<feBlend mode="normal" in="SourceGraphic" in2="BackgroundImageFix" result="shape"/>
<feGaussianBlur stdDeviation="2" result="effect1_foregroundBlur_1755_13951"/>
</filter>
<filter id="filter2_dd_1755_13951" x="12.8506" y="7" width="57.2988" height="12" filterUnits="userSpaceOnUse" color-interpolation-filters="sRGB">
<feFlood flood-opacity="0" result="BackgroundImageFix"/>
<feColorMatrix in="SourceAlpha" type="matrix" values="0 0 0 0 0 0 0 0 0 0 0 0 0 0 0 0 0 0 127 0" result="hardAlpha"/>
<feOffset dx="1" dy="1"/>
<feGaussianBlur stdDeviation="1"/>
<feComposite in2="hardAlpha" operator="out"/>
<feColorMatrix type="matrix" values="0 0 0 0 1 0 0 0 0 1 0 0 0 0 1 0 0 0 0.25 0"/>
<feBlend mode="normal" in2="BackgroundImageFix" result="effect1_dropShadow_1755_13951"/>
<feColorMatrix in="SourceAlpha" type="matrix" values="0 0 0 0 0 0 0 0 0 0 0 0 0 0 0 0 0 0 127 0" result="hardAlpha"/>
<feOffset dx="-1" dy="-1"/>
<feGaussianBlur stdDeviation="1"/>
<feComposite in2="hardAlpha" operator="out"/>
<feColorMatrix type="matrix" values="0 0 0 0 1 0 0 0 0 1 0 0 0 0 1 0 0 0 0.25 0"/>
<feBlend mode="normal" in2="effect1_dropShadow_1755_13951" result="effect2_dropShadow_1755_13951"/>
<feBlend mode="normal" in="SourceGraphic" in2="effect2_dropShadow_1755_13951" result="shape"/>
</filter>
<filter id="filter3_dd_1755_13951" x="545.851" y="67" width="17.2988" height="12" filterUnits="userSpaceOnUse" color-interpolation-filters="sRGB">
<feFlood flood-opacity="0" result="BackgroundImageFix"/>
<feColorMatrix in="SourceAlpha" type="matrix" values="0 0 0 0 0 0 0 0 0 0 0 0 0 0 0 0 0 0 127 0" result="hardAlpha"/>
<feOffset dx="1" dy="1"/>
<feGaussianBlur stdDeviation="1"/>
<feComposite in2="hardAlpha" operator="out"/>
<feColorMatrix type="matrix" values="0 0 0 0 1 0 0 0 0 1 0 0 0 0 1 0 0 0 0.25 0"/>
<feBlend mode="normal" in2="BackgroundImageFix" result="effect1_dropShadow_1755_13951"/>
<feColorMatrix in="SourceAlpha" type="matrix" values="0 0 0 0 0 0 0 0 0 0 0 0 0 0 0 0 0 0 127 0" result="hardAlpha"/>
<feOffset dx="-1" dy="-1"/>
<feGaussianBlur stdDeviation="1"/>
<feComposite in2="hardAlpha" operator="out"/>
<feColorMatrix type="matrix" values="0 0 0 0 1 0 0 0 0 1 0 0 0 0 1 0 0 0 0.25 0"/>
<feBlend mode="normal" in2="effect1_dropShadow_1755_13951" result="effect2_dropShadow_1755_13951"/>
<feBlend mode="normal" in="SourceGraphic" in2="effect2_dropShadow_1755_13951" result="shape"/>
</filter>
<filter id="filter4_dd_1755_13951" x="553.851" y="67" width="17.2988" height="12" filterUnits="userSpaceOnUse" color-interpolation-filters="sRGB">
<feFlood flood-opacity="0" result="BackgroundImageFix"/>
<feColorMatrix in="SourceAlpha" type="matrix" values="0 0 0 0 0 0 0 0 0 0 0 0 0 0 0 0 0 0 127 0" result="hardAlpha"/>
<feOffset dx="1" dy="1"/>
<feGaussianBlur stdDeviation="1"/>
<feComposite in2="hardAlpha" operator="out"/>
<feColorMatrix type="matrix" values="0 0 0 0 1 0 0 0 0 1 0 0 0 0 1 0 0 0 0.25 0"/>
<feBlend mode="normal" in2="BackgroundImageFix" result="effect1_dropShadow_1755_13951"/>
<feColorMatrix in="SourceAlpha" type="matrix" values="0 0 0 0 0 0 0 0 0 0 0 0 0 0 0 0 0 0 127 0" result="hardAlpha"/>
<feOffset dx="-1" dy="-1"/>
<feGaussianBlur stdDeviation="1"/>
<feComposite in2="hardAlpha" operator="out"/>
<feColorMatrix type="matrix" values="0 0 0 0 1 0 0 0 0 1 0 0 0 0 1 0 0 0 0.25 0"/>
<feBlend mode="normal" in2="effect1_dropShadow_1755_13951" result="effect2_dropShadow_1755_13951"/>
<feBlend mode="normal" in="SourceGraphic" in2="effect2_dropShadow_1755_13951" result="shape"/>
</filter>
<filter id="filter5_dd_1755_13951" x="561.851" y="67" width="17.2988" height="12" filterUnits="userSpaceOnUse" color-interpolation-filters="sRGB">
<feFlood flood-opacity="0" result="BackgroundImageFix"/>
<feColorMatrix in="SourceAlpha" type="matrix" values="0 0 0 0 0 0 0 0 0 0 0 0 0 0 0 0 0 0 127 0" result="hardAlpha"/>
<feOffset dx="1" dy="1"/>
<feGaussianBlur stdDeviation="1"/>
<feComposite in2="hardAlpha" operator="out"/>
<feColorMatrix type="matrix" values="0 0 0 0 1 0 0 0 0 1 0 0 0 0 1 0 0 0 0.25 0"/>
<feBlend mode="normal" in2="BackgroundImageFix" result="effect1_dropShadow_1755_13951"/>
<feColorMatrix in="SourceAlpha" type="matrix" values="0 0 0 0 0 0 0 0 0 0 0 0 0 0 0 0 0 0 127 0" result="hardAlpha"/>
<feOffset dx="-1" dy="-1"/>
<feGaussianBlur stdDeviation="1"/>
<feComposite in2="hardAlpha" operator="out"/>
<feColorMatrix type="matrix" values="0 0 0 0 1 0 0 0 0 1 0 0 0 0 1 0 0 0 0.25 0"/>
<feBlend mode="normal" in2="effect1_dropShadow_1755_13951" result="effect2_dropShadow_1755_13951"/>
<feBlend mode="normal" in="SourceGraphic" in2="effect2_dropShadow_1755_13951" result="shape"/>
</filter>
<filter id="filter6_dd_1755_13951" x="585.851" y="67" width="17.2988" height="12" filterUnits="userSpaceOnUse" color-interpolation-filters="sRGB">
<feFlood flood-opacity="0" result="BackgroundImageFix"/>
<feColorMatrix in="SourceAlpha" type="matrix" values="0 0 0 0 0 0 0 0 0 0 0 0 0 0 0 0 0 0 127 0" result="hardAlpha"/>
<feOffset dx="1" dy="1"/>
<feGaussianBlur stdDeviation="1"/>
<feComposite in2="hardAlpha" operator="out"/>
<feColorMatrix type="matrix" values="0 0 0 0 1 0 0 0 0 1 0 0 0 0 1 0 0 0 0.25 0"/>
<feBlend mode="normal" in2="BackgroundImageFix" result="effect1_dropShadow_1755_13951"/>
<feColorMatrix in="SourceAlpha" type="matrix" values="0 0 0 0 0 0 0 0 0 0 0 0 0 0 0 0 0 0 127 0" result="hardAlpha"/>
<feOffset dx="-1" dy="-1"/>
<feGaussianBlur stdDeviation="1"/>
<feComposite in2="hardAlpha" operator="out"/>
<feColorMatrix type="matrix" values="0 0 0 0 1 0 0 0 0 1 0 0 0 0 1 0 0 0 0.25 0"/>
<feBlend mode="normal" in2="effect1_dropShadow_1755_13951" result="effect2_dropShadow_1755_13951"/>
<feBlend mode="normal" in="SourceGraphic" in2="effect2_dropShadow_1755_13951" result="shape"/>
</filter>
<filter id="filter7_dd_1755_13951" x="569.851" y="67" width="17.2988" height="12" filterUnits="userSpaceOnUse" color-interpolation-filters="sRGB">
<feFlood flood-opacity="0" result="BackgroundImageFix"/>
<feColorMatrix in="SourceAlpha" type="matrix" values="0 0 0 0 0 0 0 0 0 0 0 0 0 0 0 0 0 0 127 0" result="hardAlpha"/>
<feOffset dx="1" dy="1"/>
<feGaussianBlur stdDeviation="1"/>
<feComposite in2="hardAlpha" operator="out"/>
<feColorMatrix type="matrix" values="0 0 0 0 1 0 0 0 0 1 0 0 0 0 1 0 0 0 0.25 0"/>
<feBlend mode="normal" in2="BackgroundImageFix" result="effect1_dropShadow_1755_13951"/>
<feColorMatrix in="SourceAlpha" type="matrix" values="0 0 0 0 0 0 0 0 0 0 0 0 0 0 0 0 0 0 127 0" result="hardAlpha"/>
<feOffset dx="-1" dy="-1"/>
<feGaussianBlur stdDeviation="1"/>
<feComposite in2="hardAlpha" operator="out"/>
<feColorMatrix type="matrix" values="0 0 0 0 1 0 0 0 0 1 0 0 0 0 1 0 0 0 0.25 0"/>
<feBlend mode="normal" in2="effect1_dropShadow_1755_13951" result="effect2_dropShadow_1755_13951"/>
<feBlend mode="normal" in="SourceGraphic" in2="effect2_dropShadow_1755_13951" result="shape"/>
</filter>
<filter id="filter8_dd_1755_13951" x="593.851" y="67" width="17.2988" height="12" filterUnits="userSpaceOnUse" color-interpolation-filters="sRGB">
<feFlood flood-opacity="0" result="BackgroundImageFix"/>
<feColorMatrix in="SourceAlpha" type="matrix" values="0 0 0 0 0 0 0 0 0 0 0 0 0 0 0 0 0 0 127 0" result="hardAlpha"/>
<feOffset dx="1" dy="1"/>
<feGaussianBlur stdDeviation="1"/>
<feComposite in2="hardAlpha" operator="out"/>
<feColorMatrix type="matrix" values="0 0 0 0 1 0 0 0 0 1 0 0 0 0 1 0 0 0 0.25 0"/>
<feBlend mode="normal" in2="BackgroundImageFix" result="effect1_dropShadow_1755_13951"/>
<feColorMatrix in="SourceAlpha" type="matrix" values="0 0 0 0 0 0 0 0 0 0 0 0 0 0 0 0 0 0 127 0" result="hardAlpha"/>
<feOffset dx="-1" dy="-1"/>
<feGaussianBlur stdDeviation="1"/>
<feComposite in2="hardAlpha" operator="out"/>
<feColorMatrix type="matrix" values="0 0 0 0 1 0 0 0 0 1 0 0 0 0 1 0 0 0 0.25 0"/>
<feBlend mode="normal" in2="effect1_dropShadow_1755_13951" result="effect2_dropShadow_1755_13951"/>
<feBlend mode="normal" in="SourceGraphic" in2="effect2_dropShadow_1755_13951" result="shape"/>
</filter>
<filter id="filter9_dd_1755_13951" x="577.851" y="67" width="17.2988" height="12" filterUnits="userSpaceOnUse" color-interpolation-filters="sRGB">
<feFlood flood-opacity="0" result="BackgroundImageFix"/>
<feColorMatrix in="SourceAlpha" type="matrix" values="0 0 0 0 0 0 0 0 0 0 0 0 0 0 0 0 0 0 127 0" result="hardAlpha"/>
<feOffset dx="1" dy="1"/>
<feGaussianBlur stdDeviation="1"/>
<feComposite in2="hardAlpha" operator="out"/>
<feColorMatrix type="matrix" values="0 0 0 0 1 0 0 0 0 1 0 0 0 0 1 0 0 0 0.25 0"/>
<feBlend mode="normal" in2="BackgroundImageFix" result="effect1_dropShadow_1755_13951"/>
<feColorMatrix in="SourceAlpha" type="matrix" values="0 0 0 0 0 0 0 0 0 0 0 0 0 0 0 0 0 0 127 0" result="hardAlpha"/>
<feOffset dx="-1" dy="-1"/>
<feGaussianBlur stdDeviation="1"/>
<feComposite in2="hardAlpha" operator="out"/>
<feColorMatrix type="matrix" values="0 0 0 0 1 0 0 0 0 1 0 0 0 0 1 0 0 0 0.25 0"/>
<feBlend mode="normal" in2="effect1_dropShadow_1755_13951" result="effect2_dropShadow_1755_13951"/>
<feBlend mode="normal" in="SourceGraphic" in2="effect2_dropShadow_1755_13951" result="shape"/>
</filter>
<filter id="filter10_dd_1755_13951" x="601.851" y="67" width="17.2988" height="12" filterUnits="userSpaceOnUse" color-interpolation-filters="sRGB">
<feFlood flood-opacity="0" result="BackgroundImageFix"/>
<feColorMatrix in="SourceAlpha" type="matrix" values="0 0 0 0 0 0 0 0 0 0 0 0 0 0 0 0 0 0 127 0" result="hardAlpha"/>
<feOffset dx="1" dy="1"/>
<feGaussianBlur stdDeviation="1"/>
<feComposite in2="hardAlpha" operator="out"/>
<feColorMatrix type="matrix" values="0 0 0 0 1 0 0 0 0 1 0 0 0 0 1 0 0 0 0.25 0"/>
<feBlend mode="normal" in2="BackgroundImageFix" result="effect1_dropShadow_1755_13951"/>
<feColorMatrix in="SourceAlpha" type="matrix" values="0 0 0 0 0 0 0 0 0 0 0 0 0 0 0 0 0 0 127 0" result="hardAlpha"/>
<feOffset dx="-1" dy="-1"/>
<feGaussianBlur stdDeviation="1"/>
<feComposite in2="hardAlpha" operator="out"/>
<feColorMatrix type="matrix" values="0 0 0 0 1 0 0 0 0 1 0 0 0 0 1 0 0 0 0.25 0"/>
<feBlend mode="normal" in2="effect1_dropShadow_1755_13951" result="effect2_dropShadow_1755_13951"/>
<feBlend mode="normal" in="SourceGraphic" in2="effect2_dropShadow_1755_13951" result="shape"/>
</filter>
<filter id="filter11_bdd_1755_13951" x="-11.9" y="-11.9" width="1325.8" height="109.3" filterUnits="userSpaceOnUse" color-interpolation-filters="sRGB">
<feFlood flood-opacity="0" result="BackgroundImageFix"/>
<feGaussianBlur in="BackgroundImageFix" stdDeviation="8.95"/>
<feComposite in2="SourceAlpha" operator="in" result="effect1_backgroundBlur_1755_13951"/>
<feColorMatrix in="SourceAlpha" type="matrix" values="0 0 0 0 0 0 0 0 0 0 0 0 0 0 0 0 0 0 127 0" result="hardAlpha"/>
<feOffset dx="2" dy="2"/>
<feGaussianBlur stdDeviation="2"/>
<feComposite in2="hardAlpha" operator="out"/>
<feColorMatrix type="matrix" values="0 0 0 0 1 0 0 0 0 1 0 0 0 0 1 0 0 0 0.25 0"/>
<feBlend mode="normal" in2="effect1_backgroundBlur_1755_13951" result="effect2_dropShadow_1755_13951"/>
<feColorMatrix in="SourceAlpha" type="matrix" values="0 0 0 0 0 0 0 0 0 0 0 0 0 0 0 0 0 0 127 0" result="hardAlpha"/>
<feOffset dx="-2" dy="-2"/>
<feGaussianBlur stdDeviation="2"/>
<feComposite in2="hardAlpha" operator="out"/>
<feColorMatrix type="matrix" values="0 0 0 0 1 0 0 0 0 1 0 0 0 0 1 0 0 0 0.25 0"/>
<feBlend mode="normal" in2="effect2_dropShadow_1755_13951" result="effect3_dropShadow_1755_13951"/>
<feBlend mode="normal" in="SourceGraphic" in2="effect3_dropShadow_1755_13951" result="shape"/>
</filter>
</defs>
</svg>
