<svg width="1303" height="776" viewBox="0 0 1303 776" fill="none" xmlns="http://www.w3.org/2000/svg">
<g filter="url(#filter0_bdd_1755_10805)">
<path d="M1283.19 653L1296 633.5L1295 46.0004L1269 19.5004L203.5 19.5L192 7.84411L20 8.00036L7 19.0004V757L18.8113 768.972L327.5 767.5L396 682H543.5L556 692.5V756.5L567 767.5H701.753L790.5 653H1283.19Z" fill="white" fill-opacity="0.15" shape-rendering="crispEdges"/>
<path d="M1283.19 653L1296 633.5L1295 46.0004L1269 19.5004L203.5 19.5L192 7.84411L20 8.00036L7 19.0004V757L18.8113 768.972L327.5 767.5L396 682H543.5L556 692.5V756.5L567 767.5H701.753L790.5 653H1283.19Z" stroke="#01F8FF" stroke-width="2" shape-rendering="crispEdges"/>
</g>
<defs>
<filter id="filter0_bdd_1755_10805" x="-11.9" y="-11.0563" width="1326.8" height="798.931" filterUnits="userSpaceOnUse" color-interpolation-filters="sRGB">
<feFlood flood-opacity="0" result="BackgroundImageFix"/>
<feGaussianBlur in="BackgroundImageFix" stdDeviation="8.95"/>
<feComposite in2="SourceAlpha" operator="in" result="effect1_backgroundBlur_1755_10805"/>
<feColorMatrix in="SourceAlpha" type="matrix" values="0 0 0 0 0 0 0 0 0 0 0 0 0 0 0 0 0 0 127 0" result="hardAlpha"/>
<feOffset dx="2" dy="2"/>
<feGaussianBlur stdDeviation="2"/>
<feComposite in2="hardAlpha" operator="out"/>
<feColorMatrix type="matrix" values="0 0 0 0 1 0 0 0 0 1 0 0 0 0 1 0 0 0 0.25 0"/>
<feBlend mode="normal" in2="effect1_backgroundBlur_1755_10805" result="effect2_dropShadow_1755_10805"/>
<feColorMatrix in="SourceAlpha" type="matrix" values="0 0 0 0 0 0 0 0 0 0 0 0 0 0 0 0 0 0 127 0" result="hardAlpha"/>
<feOffset dx="-2" dy="-2"/>
<feGaussianBlur stdDeviation="2"/>
<feComposite in2="hardAlpha" operator="out"/>
<feColorMatrix type="matrix" values="0 0 0 0 1 0 0 0 0 1 0 0 0 0 1 0 0 0 0.25 0"/>
<feBlend mode="normal" in2="effect2_dropShadow_1755_10805" result="effect3_dropShadow_1755_10805"/>
<feBlend mode="normal" in="SourceGraphic" in2="effect3_dropShadow_1755_10805" result="shape"/>
</filter>
</defs>
</svg>
