<svg width="486" height="199" viewBox="0 0 486 199" fill="none" xmlns="http://www.w3.org/2000/svg">
<g style="mix-blend-mode:color-dodge" filter="url(#filter0_dd_1755_13586)">
<path fill-rule="evenodd" clip-rule="evenodd" d="M116.842 42.1835C118.618 43.2767 120.033 44.731 121.088 46.5465C122.142 48.362 122.669 50.3727 122.669 52.5786C122.669 54.8236 122.122 56.8733 121.029 58.7279C119.936 60.5629 118.462 62.0367 116.607 63.1495C114.772 64.2427 112.732 64.7893 110.487 64.7893H82.6987V58.9328H82.728V28.6552H82.6987V22.7988H108.086C110.253 22.8378 112.205 23.3844 113.943 24.4385C115.7 25.4927 117.086 26.8982 118.101 28.6552C119.155 30.4316 119.682 32.3935 119.682 34.5409C119.682 36.005 119.428 37.391 118.921 38.6989C118.433 39.9873 117.74 41.1489 116.842 42.1835ZM110.487 58.9328C112.244 58.9328 113.738 58.3179 114.968 57.0881C116.217 55.8387 116.842 54.3356 116.842 52.5786C116.842 50.8217 116.217 49.3283 114.968 48.0985C113.738 46.8491 112.244 46.2244 110.487 46.2244H108.76C108.506 46.2439 108.242 46.2537 107.969 46.2537C107.696 46.2537 107.432 46.2439 107.179 46.2244H97.4276C96.3149 45.1117 95.3291 44.1356 94.4701 43.2962C93.6307 42.4373 92.6644 41.4612 91.5712 40.368H107.969C109.589 40.368 110.966 39.8019 112.098 38.6696C113.25 37.5179 113.826 36.1319 113.826 34.5116C113.826 32.8913 113.25 31.5151 112.098 30.3828C110.966 29.2311 109.589 28.6552 107.969 28.6552H88.5551V58.9328H110.487Z" fill="#01F8FF"/>
<path d="M162.76 22.9644H168.587V64.8378H162.76V40.9436H134.737V64.8378H128.881V22.9644H134.737V35.1165H162.76V22.9644Z" fill="#01F8FF"/>
<path d="M177.669 32.1088L174.77 35.0077L174.77 64.8966H180.626L180.626 29.1806C179.514 30.2738 178.528 31.2499 177.669 32.1088Z" fill="#01F8FF"/>
<path d="M180.626 22.9061H174.77L174.77 32.7237L177.669 29.8248C178.528 28.9659 179.514 27.9898 180.626 26.8966L180.626 22.9061Z" fill="#01F8FF"/>
<path d="M185.401 22.9939H191.257V36.4051L211.579 22.9061H222.15L208.124 32.2471L193.7 41.776L222.033 64.838H212.721L191.257 47.4835V64.9259H185.401V22.9939Z" fill="#01F8FF"/>
<path d="M270.355 66.5302L250.795 22.7988H244.353L224.763 66.5009L232.523 63.6605L247.574 29.7386L262.595 63.6898L266.49 65.1246L270.355 66.5302Z" fill="#01F8FF"/>
<path d="M277.637 43.701L277.315 44.0524V22.94H283.172V38.1667L277.637 43.701Z" fill="#01F8FF"/>
<path d="M283.172 59.1034H311.253C310.472 59.8842 309.769 60.5968 309.145 61.241L305.426 64.9598H277.315V47.0977L283.172 41.2413V59.1034Z" fill="#01F8FF"/>
<path d="M402.834 64.9259L383.274 22.9061H376.832L357.242 64.8966C358.706 64.35 359.994 63.8717 361.107 63.4618C362.239 63.0518 363.538 62.5833 365.002 62.0562L380.053 29.8459L395.074 62.0855C396.538 62.6321 397.837 63.1104 398.969 63.5203C400.101 63.9303 401.39 64.3988 402.834 64.9259Z" fill="#01F8FF"/>
<path d="M439.355 64.872V22.94H433.498V54.5061L411.712 22.94H405.856V64.872H411.712V33.218L433.498 64.8134V64.872H439.355Z" fill="#01F8FF"/>
<path d="M460.143 73.7107C458.349 75.7854 450.012 76.9212 450.012 76.9212C450.012 76.9212 457.659 77.7217 460.143 79.9347C462.628 82.1477 463.125 89.8932 463.125 89.8932C463.125 89.8932 464.422 81.1796 465.665 79.9347C466.907 78.6899 475.686 76.9212 475.686 76.9212C475.686 76.9212 467.597 75.6471 465.665 73.7107C463.732 71.7743 463.125 62.5074 463.125 62.5074C463.125 62.5074 461.938 71.636 460.143 73.7107Z" fill="#01F8FF"/>
<path d="M458.467 79.6992C459.85 79.6979 461.072 80.5997 461.479 81.922V70.7965L461.4 71.1927C461.048 72.9528 459.503 74.2198 457.708 74.2198L119.574 77.148L458.467 79.6992Z" fill="#01F8FF"/>
<path d="M351.422 36.8331C354.872 36.8331 358.181 35.4626 360.621 33.0231C363.06 30.5836 364.431 27.2749 364.431 23.8249C364.431 20.3748 363.06 17.0661 360.621 14.6266C358.181 12.1871 354.872 10.8166 351.422 10.8166V16.6729C353.319 16.6729 355.138 17.4264 356.48 18.7677C357.821 20.1089 358.574 21.928 358.574 23.8249C358.574 25.7217 357.821 27.5408 356.48 28.882C355.138 30.2233 353.319 31.0136 351.422 31.0136V36.8331Z" fill="#01F8FF"/>
<path d="M318.731 31.0136H351.422V36.8331H324.494V65.5663L318.731 71.4198V31.0136Z" fill="#01F8FF"/>
<path d="M300.796 16.6728L351.422 16.6729V10.8166H294.939L300.796 16.6728Z" fill="#01F8FF"/>
<path d="M297.678 16.673L291.858 10.8166L56.511 10.8164L59.4207 16.6728L297.678 16.673Z" fill="#01F8FF"/>
<path d="M247.599 42.3101L247.824 44.0047C248.13 46.3035 249.939 48.112 252.237 48.4178L253.932 48.6431L252.237 48.8685C249.939 49.1742 248.13 50.9828 247.824 53.2816L247.599 54.9761L247.374 53.2816C247.068 50.9828 245.259 49.1742 242.96 48.8685L241.266 48.6431L242.96 48.4178C245.259 48.1121 247.068 46.3035 247.374 44.0047L247.599 42.3101Z" fill="#01F8FF"/>
</g>
<g style="mix-blend-mode:color-dodge" filter="url(#filter1_dd_1755_13586)">
<path fill-rule="evenodd" clip-rule="evenodd" d="M81.027 67.5959L66.0756 62.1013L53.8447 35.7468L41.5916 62.0739L26.6353 67.5703L53.8508 9L81.027 67.5959Z" fill="#01F8FF"/>
<path d="M55.3839 76.8108C55.6859 76.772 55.9842 76.7223 56.2788 76.662C60.3038 75.8384 63.6125 73.0472 65.1552 69.3373C65.7493 67.9093 66.0813 66.3451 66.092 64.7046C66.0922 64.6653 66.1317 64.6381 66.1684 64.6521L101.632 78.1837C101.653 78.192 101.668 78.2148 101.667 78.2381C101.494 82.0484 77.6196 76.7804 76.7389 76.5847C76.7141 76.5792 76.7057 76.5949 76.6939 76.6174C76.1886 77.5811 75.6238 78.5113 75.0023 79.4025C74.9873 79.4241 74.9891 79.4531 75.0068 79.4725L80.777 85.8224C80.7955 85.8427 80.7965 85.8734 80.7795 85.8949C78.4716 88.817 75.6992 91.3552 72.5728 93.3979C72.5509 93.4123 72.5219 93.4095 72.5031 93.3913L66.2379 87.3212C66.2202 87.3041 66.1934 87.3005 66.1718 87.3123C65.3688 87.7501 64.541 88.1458 63.6924 88.4971C62.3911 89.036 61.0509 89.4663 59.6861 89.7854C59.6614 89.7912 59.6451 89.7762 59.6441 89.8015C59.6086 90.727 55.6877 192.999 53.8015 192.999C51.8905 192.999 47.9222 90.7069 47.8864 89.7846C47.8854 89.7594 47.8691 89.7743 47.8446 89.7685C46.5047 89.4512 45.1889 89.0265 43.9107 88.4971C43.0481 88.1398 42.2069 87.7367 41.3911 87.2901C41.3694 87.2782 41.3426 87.2818 41.3249 87.299L35.0665 93.3694C35.0476 93.3877 35.0186 93.3905 34.9967 93.3761C31.874 91.3302 29.1045 88.7893 26.7997 85.865C26.7827 85.8435 26.7838 85.8129 26.8022 85.7926L32.5738 79.4408C32.5914 79.4214 32.5933 79.3924 32.5783 79.3708C31.9561 78.4761 31.3913 77.5422 30.8865 76.5747C30.8747 76.5522 30.8664 76.5365 30.8415 76.542C29.961 76.7351 6.16814 81.9188 6.00089 78.1089C5.99986 78.0856 6.01444 78.0628 6.03628 78.0545L41.4348 64.6518C41.4715 64.6379 41.5109 64.6651 41.5111 64.7044C41.5164 65.5243 41.6021 66.3252 41.7603 67.0996C42.7327 71.8497 46.4459 75.6015 51.176 76.6306C52.0215 76.8148 52.9005 76.9117 53.8015 76.9117C54.3378 76.9117 54.866 76.8773 55.3839 76.8108Z" fill="#01F8FF"/>
<path d="M53.8337 51.6582C54.2929 55.0197 56.9362 57.663 60.2977 58.1222C56.9362 58.5815 54.2929 61.2248 53.8337 64.5863C53.3744 61.2248 50.7311 58.5815 47.3696 58.1222C50.7311 57.663 53.3744 55.0197 53.8337 51.6582Z" fill="#01F8FF"/>
</g>
<defs>
<filter id="filter0_dd_1755_13586" x="46.5391" y="0.844547" width="439.119" height="99.0204" filterUnits="userSpaceOnUse" color-interpolation-filters="sRGB">
<feFlood flood-opacity="0" result="BackgroundImageFix"/>
<feColorMatrix in="SourceAlpha" type="matrix" values="0 0 0 0 0 0 0 0 0 0 0 0 0 0 0 0 0 0 127 0" result="hardAlpha"/>
<feOffset dx="-1.99437" dy="-1.99437"/>
<feGaussianBlur stdDeviation="3.98874"/>
<feComposite in2="hardAlpha" operator="out"/>
<feColorMatrix type="matrix" values="0 0 0 0 1 0 0 0 0 1 0 0 0 0 1 0 0 0 0.25 0"/>
<feBlend mode="normal" in2="BackgroundImageFix" result="effect1_dropShadow_1755_13586"/>
<feColorMatrix in="SourceAlpha" type="matrix" values="0 0 0 0 0 0 0 0 0 0 0 0 0 0 0 0 0 0 127 0" result="hardAlpha"/>
<feOffset dx="1.99437" dy="1.99437"/>
<feGaussianBlur stdDeviation="3.98874"/>
<feComposite in2="hardAlpha" operator="out"/>
<feColorMatrix type="matrix" values="0 0 0 0 1 0 0 0 0 1 0 0 0 0 1 0 0 0 0.25 0"/>
<feBlend mode="normal" in2="effect1_dropShadow_1755_13586" result="effect2_dropShadow_1755_13586"/>
<feBlend mode="normal" in="SourceGraphic" in2="effect2_dropShadow_1755_13586" result="shape"/>
</filter>
<filter id="filter1_dd_1755_13586" x="0.0176167" y="3.01688" width="107.632" height="195.965" filterUnits="userSpaceOnUse" color-interpolation-filters="sRGB">
<feFlood flood-opacity="0" result="BackgroundImageFix"/>
<feColorMatrix in="SourceAlpha" type="matrix" values="0 0 0 0 0 0 0 0 0 0 0 0 0 0 0 0 0 0 127 0" result="hardAlpha"/>
<feOffset dx="-1.99437" dy="-1.99437"/>
<feGaussianBlur stdDeviation="1.99437"/>
<feComposite in2="hardAlpha" operator="out"/>
<feColorMatrix type="matrix" values="0 0 0 0 1 0 0 0 0 1 0 0 0 0 1 0 0 0 0.25 0"/>
<feBlend mode="normal" in2="BackgroundImageFix" result="effect1_dropShadow_1755_13586"/>
<feColorMatrix in="SourceAlpha" type="matrix" values="0 0 0 0 0 0 0 0 0 0 0 0 0 0 0 0 0 0 127 0" result="hardAlpha"/>
<feOffset dx="1.99437" dy="1.99437"/>
<feGaussianBlur stdDeviation="1.99437"/>
<feComposite in2="hardAlpha" operator="out"/>
<feColorMatrix type="matrix" values="0 0 0 0 1 0 0 0 0 1 0 0 0 0 1 0 0 0 0.25 0"/>
<feBlend mode="normal" in2="effect1_dropShadow_1755_13586" result="effect2_dropShadow_1755_13586"/>
<feBlend mode="normal" in="SourceGraphic" in2="effect2_dropShadow_1755_13586" result="shape"/>
</filter>
</defs>
</svg>
