<svg width="89" height="18" viewBox="0 0 89 18" fill="none" xmlns="http://www.w3.org/2000/svg">
<path d="M15.4919 0.17778C15.5951 0.0643532 15.7391 0 15.8899 0H27.1808C27.6583 0 27.9054 0.587971 27.5787 0.947219L12.2354 17.8222C12.1323 17.9356 11.9883 18 11.8375 18H0.546614C0.069032 18 -0.17801 17.412 0.14863 17.0528L15.4919 0.17778Z" fill="url(#paint0_linear_1755_13993)"/>
<path d="M35.9161 0.17778C36.0193 0.0643532 36.1633 0 36.3141 0H47.605C48.0825 0 48.3296 0.587971 48.0029 0.947219L32.6597 17.8222C32.5565 17.9356 32.4125 18 32.2617 18H20.9708C20.4932 18 20.2462 17.412 20.5728 17.0528L35.9161 0.17778Z" fill="url(#paint1_linear_1755_13993)"/>
<path d="M56.3404 0.17778C56.4435 0.0643532 56.5875 0 56.7383 0H68.0292C68.5068 0 68.7538 0.587971 68.4272 0.947219L53.0839 17.8222C52.9807 17.9356 52.8367 18 52.6859 18H41.395C40.9175 18 40.6704 17.412 40.9971 17.0528L56.3404 0.17778Z" fill="url(#paint2_linear_1755_13993)"/>
<path d="M76.7646 0.17778C76.8677 0.0643532 77.0118 0 77.1625 0H88.4534C88.931 0 89.178 0.587971 88.8514 0.947219L73.5081 17.8222C73.405 17.9356 73.2609 18 73.1101 18H61.8192C61.3417 18 61.0946 17.412 61.4213 17.0528L76.7646 0.17778Z" fill="url(#paint3_linear_1755_13993)"/>
<defs>
<linearGradient id="paint0_linear_1755_13993" x1="0" y1="9" x2="89" y2="9" gradientUnits="userSpaceOnUse">
<stop stop-color="#D9D9D9" stop-opacity="0"/>
<stop offset="1" stop-color="#01F8FF"/>
</linearGradient>
<linearGradient id="paint1_linear_1755_13993" x1="0" y1="9" x2="89" y2="9" gradientUnits="userSpaceOnUse">
<stop stop-color="#D9D9D9" stop-opacity="0"/>
<stop offset="1" stop-color="#01F8FF"/>
</linearGradient>
<linearGradient id="paint2_linear_1755_13993" x1="0" y1="9" x2="89" y2="9" gradientUnits="userSpaceOnUse">
<stop stop-color="#D9D9D9" stop-opacity="0"/>
<stop offset="1" stop-color="#01F8FF"/>
</linearGradient>
<linearGradient id="paint3_linear_1755_13993" x1="0" y1="9" x2="89" y2="9" gradientUnits="userSpaceOnUse">
<stop stop-color="#D9D9D9" stop-opacity="0"/>
<stop offset="1" stop-color="#01F8FF"/>
</linearGradient>
</defs>
</svg>
